<svg width="24" height="24" viewBox="0 0 16 17" fill="none" xmlns="http://www.w3.org/2000/svg">
	<path d="M6.512 0.5C7.0776 0.5 7.4 1.06348 7.4 1.62936V5.0975H6.684C6.54476 4.75311 6.29014 4.4679 5.96377 4.29075C5.6374 4.11359 5.2596 4.05551 4.89513 4.12647C4.53066 4.19744 4.2022 4.39302 3.96605 4.6797C3.7299 4.96637 3.60076 5.3263 3.60076 5.6978C3.60076 6.06929 3.7299 6.42922 3.96605 6.7159C4.2022 7.00258 4.53066 7.19816 4.89513 7.26912C5.2596 7.34008 5.6374 7.28201 5.96377 7.10485C6.29014 6.92769 6.54476 6.64248 6.684 6.2981H7.4V15.0209C7.4 15.4979 7.1984 15.9725 6.7736 16.1894C6.3884 16.3913 5.96043 16.4978 5.5256 16.5C4.3176 16.5 3.4192 15.8885 2.8408 15.1649C2.44023 14.6656 2.1609 14.0801 2.0248 13.4545C1.65121 13.3442 1.30522 13.156 1.0096 12.9022C0.4416 12.4132 0 11.6288 0 10.473C0 9.86868 0.0432 9.34202 0.152 8.8994H3.52C4.0624 8.8994 4.512 9.2996 4.588 9.82066C4.24513 9.96258 3.96223 10.2193 3.7877 10.5469C3.61317 10.8745 3.55787 11.2526 3.63126 11.6165C3.70466 11.9804 3.90219 12.3075 4.19004 12.5417C4.47789 12.776 4.83816 12.9029 5.20921 12.9006C5.58025 12.8984 5.93898 12.7673 6.22402 12.5296C6.50905 12.2919 6.70266 11.9625 6.77171 11.5978C6.84075 11.233 6.78094 10.8556 6.60251 10.5301C6.42409 10.2046 6.13814 9.95127 5.7936 9.81346C5.75157 9.23887 5.4938 8.70148 5.07206 8.30921C4.65031 7.91695 4.09583 7.69888 3.52 7.6988H0.832C0.951797 7.59974 1.08515 7.51834 1.228 7.45708C1.14554 7.16298 1.09774 6.86024 1.0856 6.55503C1.0592 5.96673 1.1472 5.35443 1.3216 4.80935C1.4944 4.27309 1.768 3.75043 2.152 3.38944C2.39288 3.15461 2.69805 2.99665 3.0288 2.93562C3.188 2.26328 3.5936 1.7078 4.1112 1.3052C4.776 0.786543 5.6472 0.5 6.5112 0.5H6.512ZM8.6 12.5012H9.92C10.5247 12.5012 11.1046 12.2609 11.5322 11.8331C11.9598 11.4053 12.2 10.8251 12.2 10.2201V8.78334C12.5442 8.64403 12.8293 8.38928 13.0064 8.06275C13.1834 7.73622 13.2415 7.35823 13.1705 6.99358C13.0996 6.62892 12.9041 6.3003 12.6176 6.06403C12.3311 5.82777 11.9713 5.69856 11.6 5.69856C11.2287 5.69856 10.8689 5.82777 10.5824 6.06403C10.2959 6.3003 10.1004 6.62892 10.0295 6.99358C9.95854 7.35823 10.0166 7.73622 10.1937 8.06275C10.3707 8.38928 10.6558 8.64403 11 8.78334V10.2201C11 10.5066 10.8862 10.7815 10.6837 10.9841C10.4811 11.1868 10.2064 11.3006 9.92 11.3006H8.6V5.7034V5.6978V1.62936C8.6 1.06348 8.9224 0.5 9.488 0.5C10.3536 0.5 11.224 0.786543 11.8888 1.3052C12.4064 1.7078 12.812 2.26408 12.9712 2.93562C13.3072 2.99165 13.6064 3.16293 13.848 3.38944C14.232 3.75043 14.5056 4.27229 14.6784 4.80935C14.8528 5.35443 14.9408 5.96673 14.9144 6.55503C14.9008 6.85598 14.8568 7.16333 14.772 7.45708L14.8248 7.48109C15.1208 7.62036 15.3608 7.83887 15.54 8.12941C15.88 8.67769 16 9.46688 16 10.473C16 11.6296 15.5584 12.4148 14.9904 12.9022C14.6945 13.1561 14.3483 13.3443 13.9744 13.4545C13.8385 14.08 13.5595 14.6655 13.1592 15.1649C12.5808 15.8885 11.6824 16.5 10.4736 16.5C10.0388 16.4981 9.61087 16.3918 9.2256 16.1902C8.8016 15.9725 8.6 15.4979 8.6 15.0209V12.5012ZM4.8 5.6978C4.8 5.59166 4.84214 5.48987 4.91716 5.41481C4.99217 5.33976 5.09391 5.2976 5.2 5.2976C5.30609 5.2976 5.40783 5.33976 5.48284 5.41481C5.55786 5.48987 5.6 5.59166 5.6 5.6978C5.6 5.80394 5.55786 5.90573 5.48284 5.98078C5.40783 6.05584 5.30609 6.098 5.2 6.098C5.09391 6.098 4.99217 6.05584 4.91716 5.98078C4.84214 5.90573 4.8 5.80394 4.8 5.6978ZM5.2 10.9004C5.09391 10.9004 4.99217 10.9426 4.91716 11.0176C4.84214 11.0927 4.8 11.1945 4.8 11.3006C4.8 11.4067 4.84214 11.5085 4.91716 11.5836C4.99217 11.6586 5.09391 11.7008 5.2 11.7008C5.30609 11.7008 5.40783 11.6586 5.48284 11.5836C5.55786 11.5085 5.6 11.4067 5.6 11.3006C5.6 11.1945 5.55786 11.0927 5.48284 11.0176C5.40783 10.9426 5.30609 10.9004 5.2 10.9004ZM11.2 7.2986C11.2 7.40474 11.2421 7.50653 11.3172 7.58158C11.3922 7.65664 11.4939 7.6988 11.6 7.6988C11.7061 7.6988 11.8078 7.65664 11.8828 7.58158C11.9579 7.50653 12 7.40474 12 7.2986C12 7.19246 11.9579 7.09067 11.8828 7.01561C11.8078 6.94056 11.7061 6.8984 11.6 6.8984C11.4939 6.8984 11.3922 6.94056 11.3172 7.01561C11.2421 7.09067 11.2 7.19246 11.2 7.2986Z" fill="#0b1113"/>
</svg>
