<svg xmlns="http://www.w3.org/2000/svg" width="56" height="440" viewBox="0 0 560 4400"><g fill="rgb(29,27,47)"><g><path d="M232 4138 c-35 -110 -60 -387 -67 -733 -3 -154 -13 -496 -22 -760 -27 -733 -19 -1941 13 -2227 9 -79 64 -161 111 -166 24 -2 35 2 47 20 18 29 54 267 67 452 17 244 29 388 42 496 18 154 15 667 -5 960 -30 425 -38 654 -38 1060 0 406 -13 765 -29 834 -14 56 -42 90 -79 94 -26 3 -31 -1 -40 -30z"></path></g></g><g fill="rgb(52,44,57)"><g><path d="M270 4156 c0 -9 5 -16 10 -16 6 0 10 -7 10 -15 0 -8 -4 -15 -10 -15 -5 0 -10 -6 -10 -13 0 -8 -8 -21 -18 -30 -13 -12 -17 -26 -14 -47 3 -20 0 -30 -8 -30 -9 0 -11 -12 -7 -43 4 -28 2 -48 -5 -55 -7 -7 -8 -13 -2 -13 23 -4 41 -6 61 -8 20 -1 21 -4 12 -29 -6 -17 -21 -32 -39 -39 -38 -14 -45 -46 -33 -142 5 -42 6 -93 3 -113 -5 -24 -3 -39 4 -42 7 -3 7 -8 -3 -14 -11 -8 -11 -10 0 -15 12 -4 11 -7 -1 -16 -10 -7 -11 -11 -2 -11 6 0 12 -7 12 -15 0 -8 -4 -15 -10 -15 -6 0 -5 -10 2 -25 15 -34 22 -32 41 15 12 31 19 39 33 33 16 -6 16 -7 -2 -20 -13 -10 -14 -13 -3 -13 9 0 10 -3 3 -8 -6 -4 -14 -33 -18 -64 -6 -44 -12 -58 -27 -63 -21 -7 -22 -16 -13 -64 5 -24 12 -31 30 -31 41 0 39 -80 -3 -99 -21 -10 -24 -16 -18 -39 4 -15 12 -30 18 -34 8 -5 8 -8 1 -8 -18 0 -37 -52 -23 -60 6 -4 8 -13 5 -19 -4 -6 0 -11 11 -11 10 0 25 -11 34 -23 19 -25 12 -41 -30 -67 -17 -11 -24 -26 -26 -53 -1 -21 2 -40 7 -43 14 -9 9 -64 -7 -80 -18 -18 -4 -54 20 -54 20 0 20 -63 1 -83 -24 -23 -24 -77 -1 -77 8 0 15 -7 15 -15 0 -8 -6 -15 -12 -15 -9 0 -8 -4 2 -10 13 -9 13 -11 0 -20 -12 -8 -13 -11 -1 -19 10 -7 10 -10 1 -13 -17 -5 -4 -46 16 -50 13 -2 12 -7 -6 -30 -11 -15 -33 -33 -48 -41 -15 -7 -26 -20 -26 -30 1 -9 -2 -17 -7 -17 -5 0 -9 -4 -9 -10 0 -5 18 -10 40 -10 l41 0 -3 -67 c-2 -51 1 -71 12 -80 13 -12 13 -15 -2 -27 -10 -7 -18 -23 -18 -36 0 -16 -4 -20 -15 -16 -20 7 -33 -23 -15 -34 7 -5 19 -6 27 -3 8 3 13 -2 13 -12 0 -11 5 -15 15 -11 12 4 14 0 9 -22 -4 -15 -9 -30 -11 -34 -8 -15 -32 -8 -38 12 -3 11 -13 20 -22 20 -9 0 -13 -6 -10 -14 3 -8 1 -16 -5 -18 -6 -2 -8 -10 -4 -16 4 -7 16 -10 26 -7 10 3 21 1 24 -4 10 -16 -5 -61 -19 -61 -22 0 -27 -37 -9 -65 9 -14 19 -25 22 -25 3 0 20 11 38 25 24 18 32 21 27 9 -3 -9 -2 -19 3 -23 14 -9 34 -49 34 -65 0 -21 19 -30 35 -16 11 9 16 7 24 -8 13 -25 4 -33 -25 -26 -17 4 -26 1 -30 -10 -3 -9 -12 -16 -19 -16 -16 0 -73 -29 -81 -41 -10 -16 5 -59 20 -59 8 0 17 14 21 30 4 20 13 30 25 30 9 0 32 3 49 6 29 6 31 5 31 -25 0 -17 -4 -31 -10 -31 -5 0 -9 -10 -7 -22 1 -17 -4 -24 -21 -26 -29 -4 -44 -35 -37 -75 5 -27 1 -40 -19 -64 -26 -31 -59 -113 -46 -113 5 0 3 -16 -3 -35 -11 -37 -3 -59 14 -35 8 11 12 12 16 3 2 -7 11 -13 19 -13 10 0 12 -8 7 -32 -3 -18 -10 -34 -15 -36 -4 -2 -8 -12 -8 -22 0 -9 -7 -23 -15 -30 -8 -7 -15 -24 -15 -37 0 -16 -7 -27 -19 -30 -16 -4 -18 -11 -14 -44 4 -27 2 -39 -7 -39 -8 0 -10 -8 -6 -25 4 -15 2 -25 -5 -25 -6 0 -9 -5 -7 -11 8 -25 24 -7 38 43 11 34 22 54 33 56 14 3 17 -1 12 -21 -4 -14 -2 -28 5 -32 8 -5 8 -10 0 -20 -7 -8 -9 -19 -5 -26 4 -6 1 -15 -6 -20 -10 -6 -11 -9 -1 -9 18 0 15 -57 -3 -64 -12 -4 -14 -14 -9 -41 4 -23 2 -35 -5 -35 -6 0 -11 -7 -11 -15 0 -8 5 -15 11 -15 5 0 8 -4 5 -9 -4 -5 -1 -11 4 -13 8 -2 7 -31 0 -93 -6 -50 -12 -99 -13 -110 -3 -31 47 -33 67 -3 18 29 54 267 67 452 15 216 31 403 41 486 5 41 11 204 14 362 5 244 3 287 -8 283 -8 -3 -15 -19 -16 -35 -4 -62 -7 -70 -19 -70 -9 0 -12 17 -12 58 1 31 0 62 -1 67 -6 27 1 35 25 29 22 -5 25 -3 25 19 0 19 -6 26 -22 29 -13 2 -22 6 -20 11 1 4 2 21 2 37 0 24 4 30 21 30 13 0 19 5 16 13 -5 12 -11 116 -37 597 -6 102 -10 367 -10 590 0 415 -13 775 -29 844 -5 22 -18 51 -29 65 -22 30 -52 40 -52 17z m56 -426 c28 0 30 -6 8 -27 -13 -13 -17 -14 -24 -3 -7 11 -11 11 -24 1 -8 -7 -23 -11 -33 -9 -15 3 -13 7 12 31 17 15 31 23 33 17 2 -5 15 -10 28 -10z m64 -1461 c-11 -8 -12 -12 -2 -16 13 -5 7 -23 -9 -23 -10 0 -12 33 -2 43 3 4 11 7 17 7 6 0 4 -5 -4 -11z m-20 -599 c0 -4 -9 -10 -20 -13 -22 -6 -23 -5 -14 17 6 14 34 12 34 -4z m16 -476 c-3 -9 -6 -21 -6 -27 0 -7 -10 -17 -22 -22 -17 -8 -22 -19 -23 -45 0 -25 -5 -36 -17 -38 -25 -5 -24 36 3 99 18 40 26 49 46 49 19 0 24 -4 19 -16z m-16 -197 c0 -14 -35 -47 -50 -47 -12 0 -12 2 0 34 10 27 50 37 50 13z"></path><path d="M240 2865 c0 -9 5 -15 11 -13 6 2 11 8 11 13 0 5 -5 11 -11 13 -6 2 -11 -4 -11 -13z"></path><path d="M253 1353 c-18 -7 -16 -23 4 -45 15 -17 15 -20 3 -28 -12 -7 -12 -12 -3 -21 10 -10 16 -5 28 24 16 39 16 57 0 69 -11 9 -15 9 -32 1z"></path><path d="M155 1319 c-10 -15 -14 -89 -6 -89 3 0 12 -4 20 -9 11 -7 10 -13 -8 -32 -24 -26 -28 -49 -7 -49 23 0 35 23 41 80 12 105 12 105 -12 108 -11 2 -24 -2 -28 -9z"></path><path d="M160 920 c0 -11 5 -20 10 -20 6 0 10 9 10 20 0 11 -4 20 -10 20 -5 0 -10 -9 -10 -20z"></path><path d="M170 505 c0 -37 4 -55 13 -55 9 0 8 -3 -2 -9 -10 -6 -10 -10 -1 -16 7 -4 19 0 28 8 13 14 13 18 0 39 -8 13 -13 38 -11 56 2 23 -1 32 -12 32 -11 0 -15 -13 -15 -55z"></path><path d="M177 340 c15 -26 19 -28 25 -13 12 33 8 43 -18 43 l-25 0 18 -30z"></path></g></g><g fill="rgb(76,64,71)" ><g ><path d="M304 4142 c-6 -4 -16 -24 -23 -44 -7 -20 -19 -42 -27 -48 -15 -13 -20 -55 -5 -45 8 4 41 -46 41 -63 0 -2 -13 -2 -30 0 -26 4 -30 2 -30 -20 0 -21 4 -24 29 -20 25 4 31 0 36 -19 7 -30 -19 -81 -50 -95 -18 -8 -25 -19 -25 -40 0 -46 39 -32 72 27 18 32 35 33 30 2 -1 -12 6 -21 19 -24 14 -4 18 -11 13 -22 -3 -9 -9 -24 -12 -34 -4 -15 -11 -18 -33 -13 -16 3 -31 1 -34 -4 -3 -6 -17 -10 -31 -10 l-24 0 5 -126 c3 -69 8 -131 12 -136 3 -6 14 5 25 26 20 39 50 50 45 16 -2 -11 -6 -22 -9 -25 -3 -3 -3 -23 -1 -45 6 -57 -13 -117 -38 -123 -17 -5 -19 -9 -10 -25 6 -11 18 -27 26 -36 22 -22 26 -106 6 -130 -9 -10 -16 -28 -17 -40 -1 -11 -6 -33 -12 -48 -15 -36 -6 -57 19 -51 15 4 22 0 26 -15 3 -12 13 -24 23 -27 21 -7 16 -45 -6 -45 -8 0 -14 -6 -14 -14 0 -9 -12 -16 -27 -18 -23 -2 -29 -8 -31 -35 -2 -23 2 -35 16 -44 18 -12 18 -13 0 -50 -22 -46 -23 -63 -3 -79 16 -13 19 -105 5 -125 -4 -5 -1 -23 6 -40 l13 -30 7 33 c9 46 28 41 19 -5 -8 -45 -13 -55 -25 -48 -15 9 -18 -21 -5 -58 17 -50 2 -90 -42 -114 -34 -18 -44 -43 -17 -43 30 0 44 -27 44 -84 0 -43 3 -56 15 -56 17 0 22 -65 6 -75 -13 -8 -7 -55 9 -65 8 -5 11 -20 8 -39 -5 -34 11 -42 33 -15 11 14 13 14 21 0 5 -9 5 -24 -2 -36 -12 -22 -18 -24 -39 -11 -26 17 -58 -8 -65 -50 -3 -21 -11 -39 -16 -39 -14 0 -12 -19 3 -35 12 -11 18 -10 39 8 14 12 26 27 26 32 1 6 8 11 16 13 11 3 14 -2 9 -14 -4 -12 -2 -15 8 -12 8 3 14 16 14 30 1 15 6 32 12 40 17 20 28 88 14 88 -12 0 -15 52 -3 64 4 4 7 33 7 64 0 51 2 57 23 60 19 3 22 9 22 46 0 24 -3 71 -6 105 l-7 62 -23 -22 c-21 -20 -24 -20 -30 -5 -4 10 1 25 10 35 11 12 13 20 6 23 -16 5 -1 38 17 38 12 0 14 22 10 148 -3 81 -10 442 -16 802 -10 648 -17 776 -45 845 -16 38 -16 38 -32 27z m46 -212 c0 -5 -7 -10 -15 -10 -8 0 -15 5 -15 10 0 6 7 10 15 10 8 0 15 -4 15 -10z m-26 -701 c-9 -15 -34 -10 -28 5 3 8 12 12 20 9 8 -3 11 -9 8 -14z m-4 -559 c-12 -23 -30 -27 -30 -7 0 17 10 27 27 27 11 0 11 -5 3 -20z m0 -49 c0 -14 -18 -23 -30 -16 -6 4 -8 11 -5 16 8 12 35 12 35 0z"></path><path d="M410 1749 c0 -32 -4 -42 -20 -46 -13 -3 -20 -14 -20 -29 0 -12 -5 -26 -11 -29 -6 -4 -7 -20 -3 -38 8 -40 10 -42 28 -28 16 13 27 -5 22 -36 -2 -10 -9 -57 -16 -105 -11 -74 -16 -89 -34 -94 -27 -9 -36 -22 -36 -60 0 -16 -7 -39 -15 -50 -16 -21 -20 -60 -6 -68 5 -4 18 12 28 34 21 45 24 47 45 23 21 -24 12 -84 -13 -90 -14 -4 -19 -15 -19 -43 0 -28 -5 -39 -16 -42 -10 -2 -18 -15 -20 -30 -3 -36 14 -46 22 -14 5 21 9 24 25 15 23 -12 25 -47 4 -55 -8 -4 -15 -17 -15 -30 0 -25 -23 -33 -35 -13 -5 6 -13 3 -22 -10 -17 -25 -8 -48 13 -30 14 11 14 11 14 -18 0 -4 -8 -8 -18 -8 -14 0 -16 -7 -14 -40 2 -22 9 -46 14 -53 8 -9 8 -20 -1 -38 -6 -14 -11 -44 -11 -67 0 -24 -4 -47 -9 -52 -12 -12 -17 -97 -7 -113 4 -7 2 -54 -4 -104 -6 -51 -11 -102 -13 -113 -3 -31 47 -33 67 -3 18 28 53 263 66 441 18 249 33 432 41 502 5 39 12 184 15 323 6 228 5 252 -10 252 -12 0 -16 -10 -16 -41z"></path><path d="M345 1501 c-6 -11 9 -23 19 -14 9 9 7 23 -3 23 -6 0 -12 -4 -16 -9z"></path><path d="M250 1440 c0 -5 9 -10 20 -10 11 0 20 5 20 10 0 6 -9 10 -20 10 -11 0 -20 -4 -20 -10z"></path><path d="M264 1314 c6 -31 16 -44 16 -21 0 10 4 17 10 17 5 0 7 7 4 15 -11 27 -35 18 -30 -11z"></path><path d="M160 1291 c-15 -29 -12 -40 9 -34 10 2 24 16 30 29 9 21 8 24 -9 24 -11 0 -24 -9 -30 -19z"></path><path  d="M265 1122 c-14 -10 -19 -62 -6 -62 7 0 17 12 24 28 6 15 16 30 22 34 5 4 1 8 -10 8 -11 0 -25 -4 -30 -8z"></path><path  d="M220 794 c0 -14 -5 -34 -10 -45 -8 -14 -7 -19 3 -19 8 0 14 6 14 13 1 6 4 27 8 45 5 21 4 32 -4 32 -6 0 -11 -12 -11 -26z"></path></g></g><g fill="rgb(102,84,83)"><g><path d="M313 4133 c-18 -7 -16 -23 2 -23 8 0 15 7 15 15 0 8 -1 15 -2 14 -2 0 -9 -3 -15 -6z"></path><path d="M338 3964 c19 -9 14 -39 -9 -60 -20 -18 -49 -76 -49 -98 0 -6 10 4 22 22 23 37 41 31 41 -12 0 -16 5 -26 14 -26 11 0 13 17 11 87 -3 79 -5 88 -23 90 -11 2 -14 0 -7 -3z"></path><path d="M323 3644 c-3 -8 -1 -20 6 -27 16 -16 14 -37 -5 -37 -20 0 -42 22 -37 37 2 6 0 14 -6 17 -5 4 -12 -3 -16 -14 -7 -23 -25 -27 -25 -5 0 8 -3 15 -7 15 -5 0 -6 -22 -5 -49 3 -38 7 -48 18 -44 10 4 14 -3 14 -21 0 -14 4 -26 9 -26 13 0 20 25 14 49 -4 17 -1 21 16 21 21 0 22 -3 15 -45 -5 -38 -4 -45 10 -45 9 0 16 -8 16 -20 0 -13 -7 -20 -20 -20 -13 0 -20 -7 -20 -19 0 -21 19 -31 56 -31 l24 0 0 140 0 140 -25 0 c-14 0 -28 -7 -32 -16z"></path><path d="M340 3325 c-6 -8 -9 -19 -5 -25 3 -5 0 -10 -8 -10 -20 0 -29 -27 -11 -34 20 -8 17 -33 -6 -49 -16 -11 -19 -22 -16 -63 3 -27 7 -57 11 -66 4 -10 -2 -29 -16 -47 -12 -16 -19 -36 -16 -45 7 -19 44 -43 80 -51 l27 -7 0 206 c0 168 -3 206 -14 206 -7 0 -19 -7 -26 -15z m1 -188 c-8 -8 -11 -7 -11 4 0 20 13 34 18 19 3 -7 -1 -17 -7 -23z"></path><path d="M339 2878 c-7 -18 -21 -40 -31 -50 -10 -10 -18 -22 -18 -28 0 -5 -10 -9 -22 -7 -15 1 -23 -4 -26 -16 -3 -15 0 -18 17 -12 18 5 21 2 21 -26 0 -27 2 -30 15 -19 29 24 38 -2 25 -71 -24 -134 -24 -150 -1 -156 30 -8 28 -57 -4 -95 -34 -40 -32 -58 4 -58 25 0 31 5 36 30 5 21 13 30 26 30 24 0 24 16 7 303 -12 214 -20 244 -49 175z"></path><path d="M257 2673 c-11 -10 -8 -43 3 -43 6 0 10 11 10 25 0 26 -2 29 -13 18z"></path><path d="M269 2559 c0 -19 -2 -50 -4 -71 -2 -22 1 -38 8 -41 9 -3 12 13 10 65 -2 72 -13 108 -14 47z"></path><path d="M290 2276 c0 -18 30 -30 43 -17 5 5 6 14 3 20 -10 16 -46 13 -46 -3z"></path><path d="M264 2225 c-4 -8 -14 -15 -24 -15 -29 0 -31 -13 -4 -39 13 -13 24 -30 24 -38 0 -11 6 -8 19 8 24 30 38 18 22 -17 -15 -34 -4 -50 20 -28 23 21 24 9 4 -39 -8 -20 -15 -49 -15 -65 0 -15 -6 -34 -12 -41 -11 -10 -9 -14 5 -22 10 -6 16 -17 13 -27 -3 -9 -1 -24 4 -32 10 -16 7 -21 35 59 9 26 12 47 6 50 -6 4 -5 24 2 54 9 39 14 47 34 47 19 0 23 5 23 29 0 63 -11 91 -36 91 -14 0 -33 5 -44 10 -11 6 -29 15 -40 20 -26 13 -30 13 -36 -5z"></path><path d="M244 1735 c-6 -25 -9 -45 -8 -45 5 0 84 79 84 84 0 3 -15 6 -33 6 -30 0 -33 -3 -43 -45z"></path><path d="M402 1705 c-6 -14 -16 -25 -22 -25 -20 0 -9 -25 17 -37 41 -19 43 -17 43 37 0 56 -19 68 -38 25z"></path><path d="M406 1531 c-10 -16 -19 -149 -11 -168 13 -28 12 -62 -1 -67 -16 -6 -24 3 -24 26 0 46 -39 -2 -54 -67 l-7 -30 24 29 24 30 13 -24 c21 -39 16 -111 -9 -131 -25 -21 -29 -84 -6 -93 19 -7 20 -60 1 -75 -11 -9 -23 -56 -28 -108 -1 -13 -12 -17 -35 -14 -18 2 -16 -5 8 -49 l22 -38 -21 -26 c-16 -21 -19 -38 -17 -91 2 -53 0 -65 -12 -65 -11 0 -13 -6 -8 -23 10 -29 9 -44 -4 -157 -6 -52 -12 -104 -14 -115 -2 -16 4 -20 28 -20 22 0 33 7 42 26 17 35 50 261 63 434 22 301 31 406 45 560 19 212 19 265 1 265 -8 0 -17 -4 -20 -9z"></path><path d="M307 1010 c-3 -11 -1 -23 4 -26 5 -3 9 6 9 20 0 31 -6 34 -13 6z"></path></g></g></svg>
